<svg width="37" height="22" viewBox="0 0 37 22" fill="none" xmlns="http://www.w3.org/2000/svg">
<path d="M22.8223 11.8886C21.8223 11.8886 21.0445 12.7219 21.0445 13.6663C21.0445 14.6663 21.8223 15.4441 22.8223 15.4441C23.7667 15.4441 24.6001 14.6663 24.6001 13.6663C24.6001 12.7219 23.7667 11.8886 22.8223 11.8886ZM14.3223 9.66634H12.5445V7.88856C12.5445 7.16634 11.9334 6.55523 11.2112 6.55523C10.4334 6.55523 9.87788 7.16634 9.87788 7.88856V9.66634H8.15565C7.37787 9.66634 6.76676 10.2775 6.76676 10.9997C6.76676 11.7775 7.32232 12.333 8.1001 12.333H9.87788V14.1108C9.87788 14.8886 10.4334 15.4441 11.2112 15.4441C11.9334 15.4441 12.5445 14.8886 12.5445 14.1108V12.333H14.3223C15.0445 12.333 15.6557 11.7775 15.6557 10.9997C15.6557 10.2775 15.1001 9.66634 14.3223 9.66634ZM26.3779 6.55523C25.3779 6.55523 24.6001 7.38856 24.6001 8.33301C24.6001 9.33301 25.3779 10.1108 26.3779 10.1108C27.3222 10.1108 28.1557 9.33301 28.1557 8.33301C28.1557 7.38856 27.3222 6.55523 26.3779 6.55523ZM25.489 0.333008H11.2668C5.32232 0.333008 0.600098 5.11079 0.600098 10.9997C0.600098 16.9441 5.32232 21.6663 11.2668 21.6663H25.489C31.3779 21.6663 36.1557 16.9441 36.1557 10.9997C36.1557 5.11079 31.3779 0.333008 25.489 0.333008ZM25.489 18.9997H11.2668C6.82232 18.9997 3.26676 15.4441 3.26676 10.9997C3.26676 6.61079 6.82232 2.99967 11.2668 2.99967H25.489C29.878 2.99967 33.489 6.61079 33.489 10.9997C33.489 15.4441 29.878 18.9997 25.489 18.9997Z" fill="url(#paint0_linear_658_27121)"/>
<defs>
<linearGradient id="paint0_linear_658_27121" x1="36.1557" y1="10.9997" x2="0.600098" y2="10.9997" gradientUnits="userSpaceOnUse">
<stop stop-color="#22093F"/>
<stop offset="0.338542" stop-color="#611CB8"/>
<stop offset="0.770833" stop-color="#A94EE4"/>
<stop offset="1" stop-color="#DE78F8"/>
</linearGradient>
</defs>
</svg>
