<svg width="33" height="30" viewBox="0 0 33 30" fill="none" xmlns="http://www.w3.org/2000/svg">
<path d="M15.0562 8.80988C15.0562 10.2852 13.9017 11.3756 12.4905 11.3756C11.0152 11.3756 9.9248 10.2852 9.9248 8.80988C9.9248 7.39874 11.0152 6.24417 12.4905 6.24417C13.9017 6.24417 15.0562 7.39874 15.0562 8.80988ZM6.91009 2.90875C7.74395 1.43347 9.21923 0.599609 10.8869 0.599609H22.2402C23.9079 0.599609 25.3831 1.43347 26.2171 2.90875L31.8616 12.6584C32.6956 14.1337 32.6956 15.8656 31.8616 17.2767L26.2171 27.0905C25.3831 28.5659 23.9079 29.3996 22.2402 29.3996H10.8869C9.21923 29.3996 7.74395 28.5659 6.91009 27.0905L1.26553 17.2767C0.431673 15.8656 0.431673 14.1337 1.26553 12.6584L6.91009 2.90875ZM6.65352 20.548L10.3097 16.507C10.5662 16.1863 11.0152 16.058 11.4001 15.9939C11.8491 15.9939 12.2339 16.1863 12.5547 16.507L15.0562 19.0727L19.6104 13.5564C19.9311 13.2357 20.3801 13.0433 20.8291 13.0433C21.278 13.0433 21.7271 13.2357 21.9836 13.5564L26.9868 19.5859L29.2317 15.7373C29.4882 15.2883 29.4882 14.711 29.2317 14.1979L23.5871 4.44818C23.2665 3.93503 22.7534 3.67846 22.2402 3.67846H10.8869C10.3738 3.67846 9.86066 3.93503 9.53995 4.44818L3.89538 14.1979C3.63881 14.711 3.63881 15.2883 3.89538 15.7373L6.65352 20.548Z" fill="url(#paint0_linear_658_27115)"/>
<defs>
<linearGradient id="paint0_linear_658_27115" x1="32.4871" y1="14.9996" x2="0.640137" y2="14.9996" gradientUnits="userSpaceOnUse">
<stop stop-color="#22093F"/>
<stop offset="0.338542" stop-color="#611CB8"/>
<stop offset="0.770833" stop-color="#A94EE4"/>
<stop offset="1" stop-color="#DE78F8"/>
</linearGradient>
</defs>
</svg>
