<svg width="33" height="26" viewBox="0 0 33 26" fill="none" xmlns="http://www.w3.org/2000/svg">
<path d="M15.12 3.4002C15.12 4.2502 14.77 5.0502 14.22 5.6002L15.57 8.5002C16.17 8.3002 16.82 8.2002 17.52 8.2002C19.42 8.2002 21.22 9.0002 22.52 10.2502L26.3699 7.4002C26.32 7.1502 26.32 6.9002 26.32 6.6002C26.32 4.8502 27.72 3.4002 29.52 3.4002C31.2701 3.4002 32.72 4.8502 32.72 6.6002C32.72 8.4002 31.2701 9.8002 29.52 9.8002C28.8701 9.8002 28.32 9.6502 27.82 9.3502L23.92 12.2002C24.42 13.1502 24.72 14.2502 24.72 15.4002C24.72 16.3503 24.52 17.2501 24.22 18.0501L27.5699 20.0501C28.12 19.6501 28.7699 19.4002 29.52 19.4002C31.2701 19.4002 32.72 20.8501 32.72 22.6002C32.72 24.4002 31.2701 25.8002 29.52 25.8002C27.72 25.8002 26.32 24.4002 26.32 22.6002C26.32 22.4501 26.32 22.3002 26.32 22.1503L22.9699 20.1002C21.62 21.6501 19.6701 22.6002 17.52 22.6002C13.92 22.6002 10.97 20.0501 10.37 16.6002H6.86997C6.36997 17.8002 5.21997 18.6002 3.91997 18.6002C2.11997 18.6002 0.719971 17.2002 0.719971 15.4002C0.719971 13.6502 2.11997 12.2002 3.91997 12.2002C5.21997 12.2002 6.36997 13.0502 6.86997 14.2002H10.37C10.72 12.2502 11.82 10.6002 13.42 9.5002L12.07 6.6002C12.02 6.6002 11.97 6.6002 11.92 6.6002C10.12 6.6002 8.71997 5.2002 8.71997 3.4002C8.71997 1.6502 10.12 0.200195 11.92 0.200195C13.67 0.200195 15.12 1.6502 15.12 3.4002ZM17.52 20.2002C20.1699 20.2002 22.32 18.0501 22.32 15.4002C22.32 12.7502 20.1699 10.6002 17.52 10.6002C14.82 10.6002 12.72 12.7502 12.72 15.4002C12.72 18.0501 14.82 20.2002 17.52 20.2002Z" fill="url(#paint0_linear_658_27127)"/>
<defs>
<linearGradient id="paint0_linear_658_27127" x1="32.72" y1="13.0002" x2="0.719971" y2="13.0002" gradientUnits="userSpaceOnUse">
<stop stop-color="#22093F"/>
<stop offset="0.338542" stop-color="#611CB8"/>
<stop offset="0.770833" stop-color="#A94EE4"/>
<stop offset="1" stop-color="#DE78F8"/>
</linearGradient>
</defs>
</svg>
