<svg width="28" height="28" viewBox="0 0 28 28" fill="none" xmlns="http://www.w3.org/2000/svg">
<g clip-path="url(#clip0_1147_2023)">
<path d="M23.6921 5.27349C21.9187 4.44678 19.9986 3.84675 17.9985 3.50006C17.9809 3.4995 17.9635 3.50279 17.9474 3.5097C17.9312 3.51661 17.9168 3.52698 17.9051 3.54006C17.6651 3.98009 17.3851 4.55345 17.1984 4.99347C15.077 4.67345 12.9196 4.67345 10.7981 4.99347C10.6114 4.54011 10.3314 3.98009 10.0781 3.54006C10.0647 3.5134 10.0247 3.50006 9.98473 3.50006C7.98463 3.84675 6.07786 4.44678 4.29111 5.27349C4.27777 5.27349 4.26444 5.28682 4.2511 5.30015C0.624251 10.7271 -0.375801 16.0074 0.117558 21.2343C0.117558 21.261 0.130892 21.2876 0.15756 21.301C2.55768 23.0611 4.86447 24.1278 7.14459 24.8345C7.18459 24.8478 7.22459 24.8345 7.23792 24.8078C7.77129 24.0745 8.25131 23.3011 8.66466 22.4877C8.69133 22.4344 8.66466 22.381 8.61133 22.3677C7.85129 22.0743 7.13125 21.7277 6.42455 21.3276C6.37121 21.301 6.37121 21.221 6.41122 21.181C6.55789 21.0743 6.70456 20.9543 6.85124 20.8476C6.87791 20.821 6.91791 20.821 6.94458 20.8343C11.5315 22.9277 16.4784 22.9277 21.012 20.8343C21.0386 20.821 21.0786 20.821 21.1053 20.8476C21.252 20.9676 21.3987 21.0743 21.5453 21.1943C21.5987 21.2343 21.5987 21.3143 21.532 21.341C20.8386 21.7543 20.1053 22.0877 19.3452 22.381C19.2919 22.3944 19.2785 22.461 19.2919 22.501C19.7186 23.3144 20.1986 24.0878 20.7186 24.8212C20.7586 24.8345 20.7986 24.8478 20.8386 24.8345C23.1321 24.1278 25.4389 23.0611 27.839 21.301C27.8656 21.2876 27.879 21.261 27.879 21.2343C28.4657 15.194 26.9056 9.95373 23.7454 5.30015C23.7321 5.28682 23.7188 5.27349 23.6921 5.27349V5.27349ZM9.35803 18.0475C7.98463 18.0475 6.8379 16.7807 6.8379 15.2207C6.8379 13.6606 7.95796 12.3939 9.35803 12.3939C10.7714 12.3939 11.8915 13.6739 11.8782 15.2207C11.8782 16.7807 10.7581 18.0475 9.35803 18.0475ZM18.6518 18.0475C17.2784 18.0475 16.1317 16.7807 16.1317 15.2207C16.1317 13.6606 17.2518 12.3939 18.6518 12.3939C20.0653 12.3939 21.1853 13.6739 21.172 15.2207C21.172 16.7807 20.0653 18.0475 18.6518 18.0475Z" fill="#7A7A7A"/>
<path d="M23.6921 5.27349C21.9187 4.44678 19.9986 3.84675 17.9985 3.50006C17.9809 3.4995 17.9635 3.50279 17.9474 3.5097C17.9312 3.51661 17.9168 3.52698 17.9051 3.54006C17.6651 3.98009 17.3851 4.55345 17.1984 4.99347C15.077 4.67345 12.9196 4.67345 10.7981 4.99347C10.6114 4.54011 10.3314 3.98009 10.0781 3.54006C10.0647 3.5134 10.0247 3.50006 9.98473 3.50006C7.98463 3.84675 6.07786 4.44678 4.29111 5.27349C4.27777 5.27349 4.26444 5.28682 4.2511 5.30015C0.624251 10.7271 -0.375801 16.0074 0.117558 21.2343C0.117558 21.261 0.130892 21.2876 0.15756 21.301C2.55768 23.0611 4.86447 24.1278 7.14459 24.8345C7.18459 24.8478 7.22459 24.8345 7.23792 24.8078C7.77129 24.0745 8.25131 23.3011 8.66466 22.4877C8.69133 22.4344 8.66466 22.381 8.61133 22.3677C7.85129 22.0743 7.13125 21.7277 6.42455 21.3276C6.37121 21.301 6.37121 21.221 6.41122 21.181C6.55789 21.0743 6.70456 20.9543 6.85124 20.8476C6.87791 20.821 6.91791 20.821 6.94458 20.8343C11.5315 22.9277 16.4784 22.9277 21.012 20.8343C21.0386 20.821 21.0786 20.821 21.1053 20.8476C21.252 20.9676 21.3987 21.0743 21.5453 21.1943C21.5987 21.2343 21.5987 21.3143 21.532 21.341C20.8386 21.7543 20.1053 22.0877 19.3452 22.381C19.2919 22.3944 19.2785 22.461 19.2919 22.501C19.7186 23.3144 20.1986 24.0878 20.7186 24.8212C20.7586 24.8345 20.7986 24.8478 20.8386 24.8345C23.1321 24.1278 25.4389 23.0611 27.839 21.301C27.8656 21.2876 27.879 21.261 27.879 21.2343C28.4657 15.194 26.9056 9.95373 23.7454 5.30015C23.7321 5.28682 23.7188 5.27349 23.6921 5.27349V5.27349ZM9.35803 18.0475C7.98463 18.0475 6.8379 16.7807 6.8379 15.2207C6.8379 13.6606 7.95796 12.3939 9.35803 12.3939C10.7714 12.3939 11.8915 13.6739 11.8782 15.2207C11.8782 16.7807 10.7581 18.0475 9.35803 18.0475ZM18.6518 18.0475C17.2784 18.0475 16.1317 16.7807 16.1317 15.2207C16.1317 13.6606 17.2518 12.3939 18.6518 12.3939C20.0653 12.3939 21.1853 13.6739 21.172 15.2207C21.172 16.7807 20.0653 18.0475 18.6518 18.0475Z" fill="#9945FF" fill-opacity="0.04"/>
</g>
<defs>
<clipPath id="clip0_1147_2023">
<rect width="28" height="28" fill="#7A7A7A"/>
</clipPath>
</defs>
</svg>
