<svg width="48" height="48" viewBox="0 0 48 48" fill="none" xmlns="http://www.w3.org/2000/svg">
<rect width="48" height="48" rx="24" fill="white"/>
<g clip-path="url(#clip0_1147_1945)">
<path d="M26.3844 12.1184H13.9958C12.9503 12.1184 12.0996 12.9691 12.0996 14.0146V26.3746C12.0996 26.3746 12.0996 28.2709 13.7832 28.2709H15.4941C17.2038 28.2709 17.1848 26.4031 17.1848 26.4031L17.2145 17.2903L26.3558 17.2594C26.3558 17.2594 28.2521 17.2594 28.2521 15.5568V13.8269C28.2521 12.0982 26.3844 12.1172 26.3844 12.1172V12.1184Z" fill="black"/>
<path d="M21.4693 35.881H33.8578C34.9034 35.881 35.7541 35.0303 35.7541 33.9847V21.6247C35.7541 21.6247 35.7541 19.7285 34.0705 19.7285H32.3596C30.6499 19.7285 30.6689 21.5963 30.6689 21.5963L30.6392 30.7091L21.4978 30.74C21.4978 30.74 19.6016 30.74 19.6016 32.4426V34.1724C19.6016 35.9012 21.4693 35.8822 21.4693 35.8822V35.881Z" fill="black"/>
</g>
<defs>
<clipPath id="clip0_1147_1945">
<rect width="24" height="24" fill="white" transform="translate(12 12)"/>
</clipPath>
</defs>
</svg>
