<svg width="49" height="48" viewBox="0 0 49 48" fill="none" xmlns="http://www.w3.org/2000/svg">
<rect x="0.333496" width="48" height="48" rx="24" fill="white"/>
<g clip-path="url(#clip0_1147_1991)">
<path d="M34.0208 14H14.6468C8.95083 14 4.3335 18.4773 4.3335 24C4.3335 29.5227 8.95083 34 14.6462 34H34.0202C39.7162 34 44.3335 29.5227 44.3335 24C44.3335 18.4773 39.7162 14 34.0208 14Z" fill="white"/>
<path d="M33.6575 32.3646C38.4509 32.3646 42.3362 28.596 42.3362 23.9473C42.3362 19.298 38.4509 15.5293 33.6582 15.5293C28.8649 15.5293 24.9795 19.298 24.9795 23.9473C24.9795 28.596 28.8649 32.3646 33.6575 32.3646ZM15.0249 32.3646C19.8182 32.3646 23.7035 28.596 23.7035 23.9473C23.7035 19.298 19.8175 15.5293 15.0249 15.5293C10.2315 15.5293 6.34619 19.298 6.34619 23.9473C6.34619 28.596 10.2315 32.3646 15.0249 32.3646Z" fill="#4FBBEB" stroke="#010101" stroke-width="0.75" stroke-miterlimit="10"/>
<path d="M33.6576 30.5036C37.391 30.5036 40.4176 27.5683 40.4176 23.9476C40.4176 20.3269 37.391 17.3916 33.6576 17.3916C29.925 17.3916 26.899 20.3269 26.899 23.9476C26.899 27.5676 29.9256 30.5036 33.6583 30.5036H33.6576ZM15.025 30.5036C18.7583 30.5036 21.7843 27.5683 21.7843 23.9476C21.7843 20.3269 18.7576 17.3916 15.0243 17.3916C11.2916 17.3916 8.26562 20.3269 8.26562 23.9476C8.26562 27.5676 11.2923 30.5036 15.025 30.5036Z" fill="white" stroke="#010101" stroke-width="1.5" stroke-miterlimit="10"/>
<path d="M17.677 27.4873C18.8024 27.4873 19.7157 26.1473 19.7157 24.494C19.7157 22.8407 18.8024 21.5 17.677 21.5C16.5504 21.5 15.6377 22.84 15.6377 24.4933C15.6377 26.1467 16.551 27.4873 17.677 27.4873Z" fill="#010101"/>
<path d="M18.1953 25.0019C18.636 25.0019 18.994 24.4772 18.994 23.8292C18.994 23.1826 18.636 22.6572 18.1953 22.6572C17.754 22.6572 17.396 23.1819 17.396 23.8292C17.396 24.4772 17.754 25.0019 18.1947 25.0019H18.1953Z" fill="white"/>
<path d="M36.3097 27.4873C37.4357 27.4873 38.3483 26.1473 38.3483 24.494C38.3483 22.8407 37.435 21.5 36.3097 21.5C35.1837 21.5 34.271 22.84 34.271 24.4933C34.271 26.1467 35.1843 27.4873 36.3097 27.4873Z" fill="#010101"/>
<path d="M36.828 25.0019C37.2693 25.0019 37.6266 24.4772 37.6266 23.8292C37.6266 23.1826 37.2693 22.6572 36.828 22.6572C36.3866 22.6572 36.0293 23.1819 36.0293 23.8292C36.0293 24.4772 36.3866 25.0019 36.828 25.0019Z" fill="white"/>
</g>
<defs>
<clipPath id="clip0_1147_1991">
<rect width="40" height="20" fill="white" transform="translate(4.3335 14)"/>
</clipPath>
</defs>
</svg>
