<svg width="64" height="64" viewBox="0 0 64 64" fill="none" xmlns="http://www.w3.org/2000/svg">
<path d="M64 32C64 49.6732 49.6732 64 32 64C14.3269 64 0 49.6732 0 32C0 14.3269 14.3269 0 32 0C49.6732 0 64 14.3269 64 32Z" fill="#FFD15C"/>
<path d="M16.5007 45.1116C16.7769 44.9241 17.0346 44.6431 17.1629 44.2443C17.3055 43.8012 17.2214 43.4112 17.1546 43.1953C17.1524 43.1881 17.1501 43.1808 17.1477 43.1737L17.2009 42.863C17.3479 42.9457 17.517 43.0568 17.7099 43.1924C17.7564 43.225 17.8214 43.2714 17.8891 43.3196C17.9778 43.383 18.0714 43.4498 18.1338 43.4933C18.241 43.5678 18.3932 43.6717 18.5544 43.7573C22.8217 46.4096 26.3508 47.503 29.1538 47.3675C32.0517 47.2274 34.084 45.7696 35.1323 43.6421C36.1455 41.5857 36.1808 39.0375 35.4707 36.6769C34.7562 34.301 33.2531 31.9921 31.0128 30.3941C27.2379 27.7017 23.7788 23.6078 22.0297 20.1267C21.1414 18.3588 20.788 16.933 20.8813 16.002C20.9246 15.5687 21.0574 15.3066 21.2162 15.1379C21.3751 14.9691 21.6646 14.7829 22.2224 14.6911C23.4038 14.4964 24.7703 14.0709 26.157 13.6392C26.6954 13.4715 27.2367 13.3029 27.7716 13.1465C29.7703 12.562 31.8862 12.0711 34.1104 12.0752C38.4242 12.0833 43.4867 13.9562 48.8171 21.7474C55.6645 31.756 51.9053 42.9401 44.017 48.8156C40.0829 51.7458 35.1746 53.301 30.1308 52.7097C25.5893 52.1773 20.8328 49.8918 16.5007 45.1116ZM17.295 42.5212C17.295 42.5215 17.2935 42.5244 17.29 42.5295C17.2931 42.5235 17.2948 42.521 17.295 42.5212ZM16.8662 42.7167C16.8661 42.7164 16.8704 42.7168 16.8799 42.7191C16.8712 42.7181 16.8665 42.7171 16.8662 42.7167Z" fill="white" stroke="black" stroke-width="3.3821"/>
<path d="M20.4207 15.2036C20.4207 15.2036 32.6533 11.9463 35.3315 11.9463C38.0097 11.9463 48.7116 17.1431 51.8349 26.6401C56.2624 40.1033 44.2193 48.9309 42.8593 48.0655C55.8159 37.3527 34.6077 17.5511 24.1846 19.0398C22.8817 19.226 23.6055 20.3427 23.6055 20.3427L23.316 23.238L21.1445 19.6189L20.4207 15.2036Z" fill="black"/>
<path d="M50.0525 22.5908C53.9154 29.391 53.1125 25.4976 52.255 33.2712C53.8419 30.7041 56.3233 32.6263 57.3481 33.6079C57.5317 33.7838 57.8348 33.6748 57.8262 33.4205C57.7872 32.2675 57.4568 29.7759 55.548 27.1029C52.9307 23.4374 50.0525 22.5908 50.0525 22.5908Z" fill="black"/>
<path d="M52.255 33.2712C52.4027 32.9063 52.6333 32.3368 52.6333 32.3368M52.255 33.2712C53.1125 25.4976 53.9154 29.391 50.0525 22.5908C50.0525 22.5908 52.9307 23.4374 55.548 27.1029C57.4568 29.7759 57.7872 32.2675 57.8262 33.4205C57.8348 33.6748 57.5317 33.7838 57.3481 33.6079C56.3233 32.6263 53.8419 30.7041 52.255 33.2712Z" stroke="black" stroke-width="0.190006"/>
<path d="M18.9735 32.2332C17.3436 34.9926 13.9996 34.7856 14.0637 38.0767C17.0505 44.7128 17.0681 44.2368 17.0681 44.2368C22.6008 41.1288 20.3271 34.266 19.5062 32.2475C19.4134 32.0193 19.0987 32.0211 18.9735 32.2332Z" fill="black"/>
<path d="M6.43208 38.3348C9.60991 38.7494 11.5056 35.9867 14.0596 38.0635C17.45 44.5027 17.064 44.2235 17.064 44.2235C11.2087 46.6698 7.20049 40.6531 6.11536 38.7634C5.9927 38.5498 6.18785 38.303 6.43208 38.3348Z" fill="black"/>
<path d="M33.0875 34.2409C33.0875 34.2409 36.2724 37.4985 34.6076 38.0048C32.5316 36.7272 28.8117 37.7201 26.9882 38.335C26.5393 38.4865 26.0992 38.0881 26.261 37.6427C26.8811 35.9367 28.4121 32.7786 31.3503 32.359C33.0875 31.9244 33.0875 34.2409 33.0875 34.2409Z" fill="black"/>
<path d="M35.0419 18.3165C34.6799 17.8099 33.9562 16.4346 36.2 16.4346C38.4439 16.4346 41.8725 18.9753 42.5697 19.9152C42.3526 20.488 40.9049 20.6161 40.1811 20.5605C39.4573 20.5048 38.2267 20.3857 37.2858 19.9152C36.3448 19.4448 35.4039 18.8233 35.0419 18.3165Z" fill="white"/>
</svg>
