<svg width="162" height="24" viewBox="0 0 162 24" fill="none" xmlns="http://www.w3.org/2000/svg">
<g clip-path="url(#clip0_849_1792)">
<path d="M27.1327 18.9226L22.7027 23.6726C22.6069 23.7758 22.4908 23.8581 22.3618 23.9144C22.2328 23.9708 22.0935 24 21.9527 24.0001H0.952698C0.85254 24 0.75457 23.9708 0.670785 23.9159C0.587003 23.861 0.521043 23.7829 0.48098 23.6911C0.440918 23.5993 0.428493 23.4978 0.445228 23.3991C0.461963 23.3003 0.507128 23.2086 0.575198 23.1351L5.0002 18.3851C5.09602 18.2819 5.21205 18.1996 5.3411 18.1432C5.47012 18.0869 5.6094 18.0577 5.7502 18.0576H26.7502C26.8512 18.0555 26.9507 18.0834 27.0359 18.1377C27.1212 18.192 27.1887 18.2703 27.2294 18.3627C27.2704 18.4552 27.2829 18.5577 27.2657 18.6573C27.2484 18.7569 27.2022 18.8492 27.1327 18.9226ZM22.7027 9.3551C22.6065 9.2524 22.4904 9.1704 22.3614 9.11407C22.2325 9.05777 22.0934 9.02835 21.9527 9.02762H0.952698C0.85254 9.02767 0.75457 9.05692 0.670785 9.11182C0.587003 9.1667 0.521043 9.24482 0.48098 9.33662C0.440918 9.42842 0.428493 9.5299 0.445228 9.62865C0.461963 9.7274 0.507128 9.81915 0.575198 9.89262L5.0002 14.6451C5.09637 14.7478 5.2125 14.8298 5.34145 14.8861C5.4704 14.9424 5.6095 14.9719 5.7502 14.9726H26.7502C26.8502 14.9721 26.9477 14.9424 27.0312 14.8874C27.1147 14.8323 27.1802 14.7542 27.2199 14.6625C27.2597 14.5708 27.2719 14.4695 27.2549 14.3709C27.2382 14.2724 27.1932 14.1809 27.1252 14.1076L22.7027 9.3551ZM0.952698 5.9426H21.9527C22.0935 5.94247 22.2328 5.9133 22.3618 5.85695C22.4908 5.80062 22.6069 5.71827 22.7027 5.6151L27.1327 0.86511C27.2022 0.79174 27.2484 0.699437 27.2657 0.599815C27.2829 0.500192 27.2704 0.3977 27.2294 0.305235C27.1887 0.21277 27.1212 0.134464 27.0359 0.0801708C26.9507 0.0258773 26.8512 -0.00197823 26.7502 0.000109301H5.7502C5.6094 0.000257511 5.47012 0.0294138 5.3411 0.0857603C5.21205 0.142107 5.09602 0.224434 5.0002 0.32761L0.575198 5.0776C0.507128 5.15107 0.461963 5.24282 0.445228 5.34157C0.428493 5.44032 0.440918 5.5418 0.48098 5.6336C0.521043 5.7254 0.587003 5.80352 0.670785 5.8584C0.75457 5.9133 0.85254 5.94255 0.952698 5.9426Z" fill="url(#paint0_linear_849_1792)"/>
<path d="M52.735 10.1501H41.5V6.45005H55.655V2.75005H41.4625C40.9775 2.74743 40.497 2.84033 40.048 3.02345C39.599 3.2066 39.1902 3.47638 38.8457 3.8174C38.501 4.15843 38.2267 4.56403 38.0387 5.011C37.8507 5.458 37.7525 5.93765 37.75 6.42255V10.1726C37.752 10.6579 37.8495 11.1381 38.0373 11.5856C38.225 12.0332 38.499 12.4394 38.8438 12.7809C39.1888 13.1225 39.5975 13.3927 40.0467 13.5762C40.496 13.7596 40.9773 13.8527 41.4625 13.8501H52.7125V17.5501H38.0175V21.2501H52.735C53.22 21.2527 53.7005 21.1598 54.1495 20.9767C54.5985 20.7935 55.0072 20.5237 55.3517 20.1827C55.6965 19.8417 55.9707 19.4361 56.1587 18.9891C56.3467 18.5421 56.445 18.0625 56.4475 17.5776V13.8276C56.4455 13.3422 56.348 12.8621 56.1603 12.4145C55.9725 11.9669 55.6985 11.5607 55.3537 11.2192C55.0087 10.8776 54.6 10.6074 54.1507 10.424C53.7015 10.2405 53.2203 10.1474 52.735 10.1501Z" fill="white"/>
<path d="M74.5 2.75012H63.2225C62.7367 2.74617 62.255 2.8381 61.8047 3.02065C61.3547 3.2032 60.945 3.47275 60.5993 3.81392C60.2533 4.15507 59.9782 4.5611 59.7897 5.00875C59.601 5.4564 59.5025 5.93687 59.5 6.42262V17.5776C59.5025 18.0634 59.601 18.5438 59.7897 18.9915C59.9782 19.4391 60.2533 19.8452 60.5993 20.1863C60.945 20.5275 61.3547 20.797 61.8047 20.9796C62.255 21.1621 62.7367 21.2541 63.2225 21.2501H74.5C74.985 21.2527 75.4655 21.1598 75.9145 20.9767C76.3635 20.7936 76.7723 20.5238 77.1168 20.1828C77.4615 19.8417 77.7358 19.4361 77.9237 18.9892C78.1117 18.5422 78.21 18.0625 78.2125 17.5776V6.42262C78.21 5.93772 78.1117 5.45807 77.9237 5.01107C77.7358 4.5641 77.4615 4.1585 77.1168 3.81747C76.7723 3.47645 76.3635 3.20667 75.9145 3.02352C75.4655 2.8404 74.985 2.7475 74.5 2.75012ZM74.4725 17.5501H63.25V6.45012H74.4675L74.4725 17.5501Z" fill="white"/>
<path d="M114 2.75027H103C102.515 2.74765 102.035 2.84055 101.586 3.02367C101.137 3.20682 100.728 3.4766 100.383 3.81762C100.039 4.15865 99.7643 4.56425 99.5763 5.01122C99.3883 5.45822 99.2901 5.93787 99.2876 6.42277V21.2503H103.038V15.1728H113.988V21.2503H117.738V6.42277C117.735 5.93575 117.636 5.45405 117.447 5.0054C117.257 4.55677 116.981 4.15007 116.633 3.8087C116.286 3.46735 115.874 3.1981 115.422 3.01645C114.97 2.8348 114.487 2.74435 114 2.75027ZM113.973 11.4728H103.023V6.45027H113.973V11.4728Z" fill="white"/>
<path d="M157.788 2.75005H146.788C146.303 2.74743 145.822 2.84033 145.373 3.02345C144.924 3.2066 144.516 3.47638 144.171 3.8174C143.826 4.15843 143.552 4.56403 143.364 5.011C143.176 5.458 143.078 5.93765 143.075 6.42255V21.2501H146.825V15.1726H157.75V21.2501H161.5V6.42255C161.498 5.93765 161.399 5.458 161.211 5.011C161.023 4.56403 160.749 4.15843 160.404 3.8174C160.06 3.47638 159.651 3.2066 159.202 3.02345C158.753 2.84033 158.273 2.74743 157.788 2.75005ZM157.75 11.4726H146.8V6.45005H157.75V11.4726Z" fill="white"/>
<path d="M136 17.55H134.5L129.138 4.30003C128.954 3.84291 128.638 3.45113 128.23 3.17498C127.822 2.89881 127.341 2.75083 126.848 2.75003H123.52C123.197 2.74838 122.876 2.81046 122.577 2.93268C122.278 3.05493 122.005 3.23493 121.775 3.46243C121.546 3.68996 121.363 3.96048 121.238 4.25863C121.112 4.55676 121.047 4.87666 121.045 5.20003V21.25H124.795V6.45003H126.295L131.655 19.7C131.842 20.1563 132.161 20.5465 132.571 20.8208C132.98 21.0951 133.462 21.241 133.955 21.24H137.283C137.606 21.2417 137.927 21.1796 138.226 21.0574C138.526 20.9352 138.798 20.7551 139.028 20.5276C139.258 20.3001 139.44 20.0296 139.566 19.7315C139.691 19.4333 139.756 19.1134 139.758 18.79V2.75003H136V17.55Z" fill="white"/>
<path d="M85.2754 2.75H81.5254V17.5775C81.5279 18.0635 81.6266 18.5441 81.8154 18.9919C82.0041 19.4398 82.2794 19.8459 82.6254 20.1871C82.9714 20.5283 83.3816 20.7978 83.8319 20.9802C84.2824 21.1626 84.7644 21.2543 85.2504 21.25H96.5004V17.55H85.2754V2.75Z" fill="white"/>
</g>
<defs>
<linearGradient id="paint0_linear_849_1792" x1="2.7027" y1="24.5726" x2="24.7227" y2="-0.252385" gradientUnits="userSpaceOnUse">
<stop offset="0.08" stop-color="#9945FF"/>
<stop offset="0.3" stop-color="#8752F3"/>
<stop offset="0.5" stop-color="#5497D5"/>
<stop offset="0.6" stop-color="#43B4CA"/>
<stop offset="0.72" stop-color="#28E0B9"/>
<stop offset="0.97" stop-color="#19FB9B"/>
</linearGradient>
<clipPath id="clip0_849_1792">
<rect width="161.5" height="24" fill="white"/>
</clipPath>
</defs>
</svg>
