<svg width="49" height="48" viewBox="0 0 49 48" fill="none" xmlns="http://www.w3.org/2000/svg">
<g filter="url(#filter0_b_1147_1955)">
<g clip-path="url(#clip0_1147_1955)">
<rect x="0.333496" width="48" height="48" rx="24" fill="black" fill-opacity="0.16"/>
<path d="M40.116 24.9094C37.151 30.3196 32.2264 34.3891 26.3544 36.2811C20.249 38.2683 16.3789 36.9089 10.9951 34.3812C16.9193 34.9152 21.0209 34.8681 26.0792 30.9141C28.8803 28.7312 31.1646 25.9564 32.7685 22.7881C35.3144 23.1023 37.7944 23.8183 40.116 24.9094Z" fill="#D81FFA"/>
<path d="M32.7851 22.7882C31.1797 25.9557 28.8944 28.7294 26.0923 30.9109C21.0341 34.8649 16.9325 34.9119 11.0083 34.3783C16.758 32.8542 20.5978 31.4042 23.9946 25.9601C24.5941 25.0028 25.1257 24.0046 25.5855 22.9728C27.9627 22.5516 30.3895 22.4894 32.7851 22.7882Z" fill="#E167FF"/>
<path d="M32.785 22.7879C30.3905 22.4905 27.9648 22.5538 25.5889 22.9758C26.5746 20.7729 27.2229 18.434 27.5121 16.038C30.0066 15.4659 32.5761 15.2926 35.1248 15.5245C34.7345 18.0542 33.9449 20.5059 32.785 22.7879Z" fill="#0057FF"/>
<path d="M25.5889 22.976C24.4783 23.1747 23.3826 23.4495 22.3096 23.7983C16.2042 25.7853 13.8748 29.1687 11.0117 34.3812C11.918 28.4974 12.9517 24.5267 18.01 20.5727C20.8051 18.3804 24.0497 16.8321 27.5122 16.0381C27.2229 18.4341 26.5746 20.773 25.5889 22.976Z" fill="#189FFF"/>
<path d="M27.5121 16.0386C24.0497 16.8325 20.8051 18.3809 18.0099 20.5732C12.9517 24.5272 11.9179 28.4979 11.0117 34.3817C9.85033 28.5415 9.46771 24.4567 12.8645 19.0125C16.1228 13.7784 21.2585 9.98765 27.2202 8.41602C27.7185 10.9256 27.817 13.4982 27.5121 16.0386Z" fill="#17EF97"/>
<path d="M24.3335 48C37.5884 48 48.3335 37.2549 48.3335 24C48.3335 10.7452 37.5884 0 24.3335 0C11.0787 0 0.333496 10.7452 0.333496 24C0.333496 37.2549 11.0787 48 24.3335 48Z" stroke="white" stroke-width="6.17905" stroke-miterlimit="10"/>
</g>
</g>
<defs>
<filter id="filter0_b_1147_1955" x="-59.6665" y="-60" width="168" height="168" filterUnits="userSpaceOnUse" color-interpolation-filters="sRGB">
<feFlood flood-opacity="0" result="BackgroundImageFix"/>
<feGaussianBlur in="BackgroundImageFix" stdDeviation="30"/>
<feComposite in2="SourceAlpha" operator="in" result="effect1_backgroundBlur_1147_1955"/>
<feBlend mode="normal" in="SourceGraphic" in2="effect1_backgroundBlur_1147_1955" result="shape"/>
</filter>
<clipPath id="clip0_1147_1955">
<rect x="0.333496" width="48" height="48" rx="24" fill="white"/>
</clipPath>
</defs>
</svg>
