<svg width="28" height="28" viewBox="0 0 28 28" fill="none" xmlns="http://www.w3.org/2000/svg">
<path d="M28 5.32876C26.9699 5.78562 25.8626 6.09426 24.7007 6.2331C25.8867 5.52234 26.7977 4.39685 27.2265 3.05565C26.1165 3.71393 24.8871 4.19178 23.5785 4.44933C22.5307 3.33307 21.0378 2.63574 19.3855 2.63574C16.2131 2.63574 13.6409 5.20712 13.6409 8.37884C13.6409 8.82898 13.6917 9.26735 13.7897 9.6877C9.01539 9.44821 4.78265 7.16166 1.94932 3.68691C1.45484 4.53513 1.17148 5.52164 1.17148 6.57421C1.17148 8.56683 2.18564 10.3247 3.72704 11.3546C2.7854 11.3248 1.89962 11.0664 1.12514 10.6363C1.12448 10.6602 1.12448 10.6843 1.12448 10.7085C1.12448 13.4911 3.10465 15.8123 5.73259 16.3402C5.25057 16.4715 4.74307 16.5416 4.21919 16.5416C3.84903 16.5416 3.48923 16.5055 3.13839 16.4386C3.86947 18.7202 5.99089 20.3807 8.50474 20.4269C6.53871 21.9674 4.06183 22.8856 1.37032 22.8856C0.90664 22.8856 0.449402 22.8583 0 22.8053C2.54227 24.435 5.56179 25.3857 8.80591 25.3857C19.3722 25.3857 25.1503 16.6344 25.1503 9.04466C25.1503 8.79564 25.1447 8.54807 25.1337 8.30158C26.2559 7.49199 27.2297 6.48057 27.9999 5.32876H28Z" fill="#7A7A7A"/>
<path d="M28 5.32876C26.9699 5.78562 25.8626 6.09426 24.7007 6.2331C25.8867 5.52234 26.7977 4.39685 27.2265 3.05565C26.1165 3.71393 24.8871 4.19178 23.5785 4.44933C22.5307 3.33307 21.0378 2.63574 19.3855 2.63574C16.2131 2.63574 13.6409 5.20712 13.6409 8.37884C13.6409 8.82898 13.6917 9.26735 13.7897 9.6877C9.01539 9.44821 4.78265 7.16166 1.94932 3.68691C1.45484 4.53513 1.17148 5.52164 1.17148 6.57421C1.17148 8.56683 2.18564 10.3247 3.72704 11.3546C2.7854 11.3248 1.89962 11.0664 1.12514 10.6363C1.12448 10.6602 1.12448 10.6843 1.12448 10.7085C1.12448 13.4911 3.10465 15.8123 5.73259 16.3402C5.25057 16.4715 4.74307 16.5416 4.21919 16.5416C3.84903 16.5416 3.48923 16.5055 3.13839 16.4386C3.86947 18.7202 5.99089 20.3807 8.50474 20.4269C6.53871 21.9674 4.06183 22.8856 1.37032 22.8856C0.90664 22.8856 0.449402 22.8583 0 22.8053C2.54227 24.435 5.56179 25.3857 8.80591 25.3857C19.3722 25.3857 25.1503 16.6344 25.1503 9.04466C25.1503 8.79564 25.1447 8.54807 25.1337 8.30158C26.2559 7.49199 27.2297 6.48057 27.9999 5.32876H28Z" fill="#9945FF" fill-opacity="0.04"/>
</svg>
